<svg xmlns="http://www.w3.org/2000/svg" width="384" height="880" viewBox="0 0 384 880" shape-rendering="crispEdges">
  <!--
    Original GOSPLAN Pack 4B production art. Every transparent 64x80 frame is
    tile-local and uses anchor [32,72]. Columns are base far/mid/near followed
    by winter far/mid/near. Rows are the eleven reviewed courtyard part types.
    No terrain tile, text, logo, gradient, filter, or raster image is embedded.
    Upright parts render through an integer 40x50 viewport whose [32,72]
    contact point remains fixed, giving the reviewed five-eighths prop scale.
  -->
  <defs>
    <g id="walkway-far">
      <polygon fill="#6E503B" points="8,57 19,52 29,57 23,61 17,58 12,61"/>
      <polygon fill="#7A7D76" points="29,58 40,62 56,68 47,73 39,68"/>
    </g>
    <g id="walkway-mid">
      <polygon fill="#6E503B" points="6,57 18,51 29,56 25,60 18,57 11,61"/>
      <polygon fill="#7A7D76" points="27,58 37,60 47,66 41,69 34,65"/>
      <polygon fill="#6E503B" points="45,65 58,69 49,74 40,70"/>
      <path fill="none" stroke="#4A4F4B" stroke-width="1" d="M15 55l6 3m11 3l6 3m9 4l5 2"/>
    </g>
    <g id="walkway-near">
      <polygon fill="#6E503B" points="4,57 17,50 28,55 24,60 17,57 9,61"/>
      <polygon fill="#7A7D76" points="26,57 35,59 45,65 40,69 33,65"/>
      <polygon fill="#6E503B" points="43,64 60,68 49,75 39,70"/>
      <path fill="none" stroke="#4A4F4B" stroke-width="1" d="M12 55l7 3m10 1l7 4m10 4l7 3"/>
      <rect fill="#4A4F4B" x="20" y="58" width="2" height="1"/>
      <rect fill="#4A4F4B" x="37" y="65" width="2" height="1"/>
    </g>

    <g id="play-frame-far">
      <path fill="none" stroke="#727970" stroke-width="4" d="M17 61V29l15 8 15-8v32M17 38h30"/>
      <rect fill="#8B4A3A" x="29" y="35" width="6" height="3"/>
      <polygon fill="#4A4F4B" points="13,61 18,59 23,62 18,65"/>
      <polygon fill="#4A4F4B" points="42,61 47,59 52,62 47,65"/>
    </g>
    <g id="play-frame-mid">
      <path fill="none" stroke="#727970" stroke-width="3" d="M16 62V26l16 8 16-8v36M16 36h32M24 40v14m16-14v14"/>
      <path fill="none" stroke="#8B4A3A" stroke-width="2" d="M26 33l6 3 6-3"/>
      <polygon fill="#4A4F4B" points="12,62 17,59 23,62 17,66"/>
      <polygon fill="#4A4F4B" points="41,62 47,59 52,62 47,66"/>
      <rect fill="#263D49" x="23" y="53" width="4" height="2"/>
      <rect fill="#263D49" x="38" y="53" width="4" height="2"/>
    </g>
    <g id="play-frame-near">
      <path fill="none" stroke="#727970" stroke-width="3" d="M14 63V24l18 9 18-9v39M14 35h36M22 38v17m20-17v17M25 43h14"/>
      <path fill="none" stroke="#8B4A3A" stroke-width="2" d="M25 31l7 4 7-4M28 40h8"/>
      <polygon fill="#4A4F4B" points="10,63 16,59 23,63 16,67"/>
      <polygon fill="#4A4F4B" points="41,63 48,59 54,63 48,67"/>
      <rect fill="#263D49" x="20" y="54" width="6" height="3"/>
      <rect fill="#263D49" x="39" y="54" width="6" height="3"/>
      <rect fill="#C6CFD1" x="15" y="29" width="2" height="5"/>
    </g>

    <g id="sandpit-far">
      <polygon fill="#727970" points="13,55 31,46 51,56 32,66"/>
      <polygon fill="#C6CFD1" points="16,55 31,48 47,56 32,63"/>
    </g>
    <g id="sandpit-mid">
      <polygon fill="#4A4F4B" points="11,55 31,45 53,56 32,68"/>
      <polygon fill="#969C93" points="11,52 31,42 53,53 32,65"/>
      <polygon fill="#C6CFD1" points="16,52 31,45 48,53 32,62"/>
      <rect fill="#8B4A3A" x="28" y="53" width="3" height="5"/>
    </g>
    <g id="sandpit-near">
      <polygon fill="#303331" points="9,55 31,44 55,56 32,69"/>
      <polygon fill="#727970" points="9,51 31,40 55,52 32,65"/>
      <polygon fill="#C6CFD1" points="15,51 31,43 49,52 32,61"/>
      <path fill="none" stroke="#969C93" stroke-width="1" d="M21 49l11 5 9-5"/>
      <rect fill="#8B4A3A" x="27" y="51" width="4" height="7"/>
      <rect fill="#B66A4C" x="31" y="53" width="4" height="3"/>
    </g>

    <g id="bench-tree-far">
      <rect fill="#303331" x="43" y="23" width="4" height="40"/>
      <path fill="none" stroke="#4A4F4B" stroke-width="4" d="M45 26L33 16m12 17l12-12m-12 20L30 31"/>
      <polygon fill="#6E503B" points="9,54 35,54 41,57 15,57"/>
      <rect fill="#4A4F4B" x="14" y="57" width="4" height="7"/>
      <rect fill="#4A4F4B" x="34" y="57" width="4" height="7"/>
    </g>
    <g id="bench-tree-mid">
      <rect fill="#303331" x="43" y="21" width="4" height="43"/>
      <path fill="none" stroke="#4A4F4B" stroke-width="3" d="M45 23L33 13m12 17l12-13m-12 22L29 28m16 3L35 22m12 8l10-5"/>
      <polygon fill="#6E503B" points="7,53 35,53 42,57 14,57"/>
      <polygon fill="#8A6748" points="7,51 35,51 42,54 14,54"/>
      <rect fill="#4A4F4B" x="13" y="57" width="4" height="8"/>
      <rect fill="#4A4F4B" x="35" y="57" width="4" height="8"/>
    </g>
    <g id="bench-tree-near">
      <rect fill="#303331" x="42" y="19" width="5" height="46"/>
      <rect fill="#727970" x="45" y="21" width="2" height="40"/>
      <path fill="none" stroke="#4A4F4B" stroke-width="3" d="M44 21L31 10m13 18l14-14M44 38L27 26m17 5L34 19m12 10l13-7m-15 9L31 34"/>
      <polygon fill="#6E503B" points="5,52 35,52 43,56 13,56"/>
      <polygon fill="#8A6748" points="5,49 35,49 43,53 13,53"/>
      <path fill="none" stroke="#303331" stroke-width="1" d="M12 51h24m-19 4v10m20-8v9"/>
      <rect fill="#C6CFD1" x="10" y="50" width="8" height="1"/>
    </g>

    <g id="bench-far">
      <polygon fill="#6E503B" points="12,48 40,48 51,54 23,54"/>
      <rect fill="#4A4F4B" x="20" y="54" width="4" height="10"/>
      <rect fill="#4A4F4B" x="43" y="54" width="4" height="10"/>
    </g>
    <g id="bench-mid">
      <polygon fill="#6E503B" points="10,46 40,46 53,52 23,52"/>
      <polygon fill="#8A6748" points="10,43 40,43 53,49 23,49"/>
      <path fill="none" stroke="#303331" stroke-width="2" d="M19 49v15m25-10v11"/>
    </g>
    <g id="bench-near">
      <polygon fill="#6E503B" points="8,45 40,45 55,52 23,52"/>
      <polygon fill="#8A6748" points="8,41 40,41 55,48 23,48"/>
      <path fill="none" stroke="#303331" stroke-width="2" d="M16 47v18m29-12v13M13 50l35 1"/>
      <rect fill="#C6CFD1" x="13" y="43" width="10" height="1"/>
    </g>

    <g id="laundry-lines-far">
      <path fill="none" stroke="#4A4F4B" stroke-width="3" d="M12 63V24m40 39V24M13 29h38"/>
      <polygon fill="#ECEBE3" points="19,29 27,29 27,40 19,38"/>
      <polygon fill="#53788A" points="31,29 39,29 39,41 31,39"/>
    </g>
    <g id="laundry-lines-mid">
      <path fill="none" stroke="#4A4F4B" stroke-width="2" d="M10 64V20m44 44V20M11 27h42M11 39h42"/>
      <polygon fill="#ECEBE3" points="16,27 25,27 25,39 16,37"/>
      <polygon fill="#53788A" points="29,27 38,27 38,41 29,39"/>
      <polygon fill="#8B4A3A" points="42,27 49,27 49,38 42,36"/>
      <polygon fill="#C6CFD1" points="22,39 30,39 30,49 22,47"/>
    </g>
    <g id="laundry-lines-near">
      <path fill="none" stroke="#303331" stroke-width="2" d="M9 65V17m46 48V17M10 25h44M10 38h44"/>
      <rect fill="#727970" x="11" y="18" width="2" height="45"/>
      <polygon fill="#ECEBE3" points="15,25 25,25 25,38 15,36"/>
      <polygon fill="#53788A" points="29,25 39,25 39,41 29,39"/>
      <polygon fill="#8B4A3A" points="43,25 51,25 51,37 43,35"/>
      <polygon fill="#C6CFD1" points="18,38 28,38 28,50 18,48"/>
      <polygon fill="#B66A4C" points="33,38 42,38 42,49 33,47"/>
      <rect fill="#C6CFD1" x="8" y="17" width="6" height="2"/>
    </g>

    <g id="washing-post-far">
      <rect fill="#4A4F4B" x="42" y="28" width="4" height="36"/>
      <path fill="none" stroke="#727970" stroke-width="3" d="M15 57l12-6 13 7-12 7z"/>
      <polygon fill="#6E503B" points="11,47 23,41 31,45 19,51"/>
    </g>
    <g id="washing-post-mid">
      <rect fill="#4A4F4B" x="43" y="25" width="4" height="40"/>
      <path fill="none" stroke="#727970" stroke-width="2" d="M13 57l14-7 16 8-15 8zM16 54l14 7m-7-9l14 7"/>
      <polygon fill="#6E503B" points="9,46 23,39 33,44 19,51"/>
      <polygon fill="#8A6748" points="9,43 23,36 33,41 19,48"/>
    </g>
    <g id="washing-post-near">
      <rect fill="#303331" x="43" y="22" width="5" height="44"/>
      <rect fill="#727970" x="46" y="24" width="2" height="38"/>
      <path fill="none" stroke="#727970" stroke-width="2" d="M11 57l16-8 18 9-17 9zM14 54l17 9m-9-11l17 9M28 50v16"/>
      <polygon fill="#6E503B" points="7,45 23,37 35,43 19,51"/>
      <polygon fill="#8A6748" points="7,41 23,33 35,39 19,47"/>
      <rect fill="#C6CFD1" x="44" y="22" width="4" height="2"/>
    </g>

    <g id="service-shelter-ne-far">
      <polygon fill="#727970" points="15,36 36,25 52,33 30,44"/>
      <polygon fill="#4A4F4B" points="15,36 30,44 30,64 15,56"/>
      <polygon fill="#969C93" points="30,44 52,33 52,53 30,64"/>
      <polygon class="service-bin" fill="#303331" points="33,51 39,48 39,59 33,62"/>
      <polygon class="service-bin" fill="#4A4F4B" points="42,47 48,44 48,55 42,58"/>
    </g>
    <g id="service-shelter-ne-mid">
      <polygon fill="#C6CFD1" points="13,34 36,22 54,31 30,43"/>
      <polygon fill="#4A4F4B" points="13,34 30,43 30,65 13,56"/>
      <polygon fill="#969C93" points="30,43 54,31 54,53 30,65"/>
      <polygon class="service-bin" fill="#303331" points="34,50 40,47 40,59 34,62"/>
      <polygon class="service-bin" fill="#4A4F4B" points="43,45 50,42 50,54 43,58"/>
    </g>
    <g id="service-shelter-ne-near">
      <polygon fill="#303331" points="11,35 36,22 56,32 30,45"/>
      <polygon fill="#C6CFD1" points="11,31 36,18 56,28 30,41"/>
      <polygon fill="#4A4F4B" points="11,31 30,41 30,66 11,56"/>
      <polygon fill="#969C93" points="30,41 56,28 56,53 30,66"/>
      <polygon fill="#263D49" points="34,43 51,34 51,51 34,60"/>
      <polygon fill="#53788A" points="36,43 49,36 49,41 36,48"/>
      <rect fill="#8B4A3A" x="15" y="43" width="9" height="5"/>
      <polygon class="service-bin" fill="#303331" points="34,52 41,48 41,60 34,64"/>
      <polygon class="service-bin" fill="#4A4F4B" points="44,47 51,43 51,55 44,59"/>
    </g>

    <g id="service-kiosk-ne-far">
      <polygon fill="#6E503B" points="20,35 38,26 51,33 32,42"/>
      <polygon fill="#4A4F4B" points="20,35 32,42 32,63 20,56"/>
      <polygon fill="#727970" points="32,42 51,33 51,54 32,63"/>
    </g>
    <g id="service-kiosk-ne-mid">
      <polygon fill="#8A6748" points="18,33 38,23 53,31 32,41"/>
      <polygon fill="#4A4F4B" points="18,33 32,41 32,64 18,56"/>
      <polygon fill="#727970" points="32,41 53,31 53,54 32,64"/>
      <polygon fill="#263D49" points="36,43 49,36 49,45 36,52"/>
      <path fill="none" stroke="#4A4F4B" stroke-width="2" d="M8 62l20-10m-15 13l20-10"/>
    </g>
    <g id="service-kiosk-ne-near">
      <polygon fill="#303331" points="16,34 38,23 55,32 32,43"/>
      <polygon fill="#8A6748" points="16,30 38,19 55,28 32,39"/>
      <polygon fill="#4A4F4B" points="16,30 32,39 32,65 16,56"/>
      <polygon fill="#727970" points="32,39 55,28 55,54 32,65"/>
      <polygon fill="#263D49" points="36,41 51,34 51,45 36,52"/>
      <polygon fill="#53788A" points="38,41 49,36 49,40 38,45"/>
      <path fill="none" stroke="#4A4F4B" stroke-width="2" d="M6 62l22-11m-16 15l22-11M10 58v8m19-15v9"/>
    </g>

    <g id="service-shelter-nw-far">
      <polygon fill="#727970" points="12,33 28,25 50,36 34,44"/>
      <polygon fill="#969C93" points="12,33 34,44 34,64 12,53"/>
      <polygon fill="#4A4F4B" points="34,44 50,36 50,56 34,64"/>
      <polygon class="service-bin" fill="#303331" points="15,42 21,45 21,56 15,53"/>
      <polygon class="service-bin" fill="#4A4F4B" points="24,46 30,49 30,60 24,57"/>
    </g>
    <g id="service-shelter-nw-mid">
      <polygon fill="#C6CFD1" points="10,31 28,22 52,34 34,43"/>
      <polygon fill="#969C93" points="10,31 34,43 34,65 10,53"/>
      <polygon fill="#4A4F4B" points="34,43 52,34 52,56 34,65"/>
      <polygon class="service-bin" fill="#303331" points="14,41 21,45 21,56 14,52"/>
      <polygon class="service-bin" fill="#4A4F4B" points="24,46 31,50 31,61 24,57"/>
    </g>
    <g id="service-shelter-nw-near">
      <polygon fill="#303331" points="8,32 28,22 54,35 34,45"/>
      <polygon fill="#C6CFD1" points="8,28 28,18 54,31 34,41"/>
      <polygon fill="#969C93" points="8,28 34,41 34,66 8,53"/>
      <polygon fill="#4A4F4B" points="34,41 54,31 54,56 34,66"/>
      <polygon fill="#263D49" points="13,35 30,44 30,60 13,51"/>
      <polygon fill="#53788A" points="15,36 28,43 28,48 15,41"/>
      <rect fill="#8B4A3A" x="40" y="43" width="8" height="5"/>
      <polygon class="service-bin" fill="#303331" points="13,45 20,49 20,60 13,56"/>
      <polygon class="service-bin" fill="#4A4F4B" points="23,50 30,54 30,64 23,60"/>
    </g>

    <g id="service-kiosk-nw-far">
      <polygon fill="#6E503B" points="13,33 26,26 45,35 32,42"/>
      <polygon fill="#727970" points="13,33 32,42 32,63 13,54"/>
      <polygon fill="#4A4F4B" points="32,42 45,35 45,56 32,63"/>
    </g>
    <g id="service-kiosk-nw-mid">
      <polygon fill="#8A6748" points="11,31 26,23 47,34 32,41"/>
      <polygon fill="#727970" points="11,31 32,41 32,64 11,54"/>
      <polygon fill="#4A4F4B" points="32,41 47,34 47,57 32,64"/>
      <polygon fill="#263D49" points="15,37 28,43 28,52 15,46"/>
      <path fill="none" stroke="#4A4F4B" stroke-width="2" d="M37 57l20 10m-25-7l20 10"/>
    </g>
    <g id="service-kiosk-nw-near">
      <polygon fill="#303331" points="9,32 26,23 49,35 32,43"/>
      <polygon fill="#8A6748" points="9,28 26,19 49,31 32,39"/>
      <polygon fill="#727970" points="9,28 32,39 32,65 9,54"/>
      <polygon fill="#4A4F4B" points="32,39 49,31 49,57 32,65"/>
      <polygon fill="#263D49" points="13,35 28,42 28,53 13,46"/>
      <polygon fill="#53788A" points="15,36 26,41 26,45 15,40"/>
      <path fill="none" stroke="#4A4F4B" stroke-width="2" d="M37 56l22 11m-27-7l22 11M39 57v9m16-1v7"/>
    </g>

    <g id="snow-walkway">
      <polygon fill="#D5D5CB" points="6,55 13,52 19,55 16,58 10,57"/>
      <polygon fill="#A7AEAA" points="27,58 33,59 38,62 34,64 29,62"/>
      <polygon fill="#D5D5CB" points="45,65 56,68 50,72 42,69"/>
      <rect fill="#4A4F4B" x="20" y="58" width="2" height="1"/>
      <rect fill="#4A4F4B" x="24" y="61" width="2" height="1"/>
      <rect fill="#727970" x="37" y="65" width="2" height="1"/>
      <rect fill="#727970" x="41" y="67" width="2" height="1"/>
    </g>
    <g id="snow-play-frame">
      <rect fill="#ECEBE3" x="13" y="23" width="7" height="3"/>
      <rect fill="#D5D5CB" x="44" y="23" width="8" height="3"/>
      <polygon fill="#ECEBE3" points="10,62 18,58 25,62 18,65"/>
    </g>
    <g id="snow-sandpit">
      <polygon fill="#ECEBE3" points="13,50 31,42 51,52 45,55 31,49 20,55"/>
    </g>
    <g id="snow-bench-tree">
      <polygon fill="#ECEBE3" points="5,48 35,48 43,52 33,53 14,50"/>
      <rect fill="#D5D5CB" x="39" y="18" width="8" height="3"/>
    </g>
    <g id="snow-bench">
      <polygon fill="#ECEBE3" points="8,40 40,40 55,47 47,48 25,43"/>
    </g>
    <g id="snow-laundry-lines">
      <rect fill="#ECEBE3" x="8" y="16" width="7" height="3"/>
      <rect fill="#D5D5CB" x="50" y="16" width="7" height="3"/>
      <polygon fill="#ECEBE3" points="8,64 15,61 21,64 14,67"/>
    </g>
    <g id="snow-washing-post">
      <polygon fill="#ECEBE3" points="7,40 23,32 35,38 29,40 19,36 12,42"/>
      <rect fill="#D5D5CB" x="41" y="21" width="8" height="3"/>
    </g>
    <g id="snow-shelter-ne">
      <polygon fill="#ECEBE3" points="10,27 36,14 58,25 51,28 36,21 17,31"/>
    </g>
    <g id="snow-kiosk-ne">
      <polygon fill="#ECEBE3" points="14,26 38,15 58,25 51,28 38,22 20,30"/>
    </g>
    <g id="snow-shelter-nw">
      <polygon fill="#ECEBE3" points="6,25 28,14 58,29 51,32 28,21 13,29"/>
    </g>
    <g id="snow-kiosk-nw">
      <polygon fill="#ECEBE3" points="7,25 26,15 53,29 47,32 26,22 13,29"/>
    </g>
  </defs>

  <!-- Each row: base far, base mid, base near, winter far, winter mid, winter near. -->
  <g transform="translate(0 0)"><use href="#walkway-far"/></g><g transform="translate(64 0)"><use href="#walkway-mid"/></g><g transform="translate(128 0)"><use href="#walkway-near"/></g><g transform="translate(192 0)"><use href="#walkway-far"/><use href="#snow-walkway"/></g><g transform="translate(256 0)"><use href="#walkway-mid"/><use href="#snow-walkway"/></g><g transform="translate(320 0)"><use href="#walkway-near"/><use href="#snow-walkway"/></g>
  <g transform="translate(0 80)"><svg x="12" y="27" width="40" height="50" viewBox="0 0 64 80"><use href="#play-frame-far"/></svg></g><g transform="translate(64 80)"><svg x="12" y="27" width="40" height="50" viewBox="0 0 64 80"><use href="#play-frame-mid"/></svg></g><g transform="translate(128 80)"><svg x="12" y="27" width="40" height="50" viewBox="0 0 64 80"><use href="#play-frame-near"/></svg></g><g transform="translate(192 80)"><svg x="12" y="27" width="40" height="50" viewBox="0 0 64 80"><use href="#play-frame-far"/><use href="#snow-play-frame"/></svg></g><g transform="translate(256 80)"><svg x="12" y="27" width="40" height="50" viewBox="0 0 64 80"><use href="#play-frame-mid"/><use href="#snow-play-frame"/></svg></g><g transform="translate(320 80)"><svg x="12" y="27" width="40" height="50" viewBox="0 0 64 80"><use href="#play-frame-near"/><use href="#snow-play-frame"/></svg></g>
  <g transform="translate(0 160)"><svg x="12" y="27" width="40" height="50" viewBox="0 0 64 80"><use href="#sandpit-far"/></svg></g><g transform="translate(64 160)"><svg x="12" y="27" width="40" height="50" viewBox="0 0 64 80"><use href="#sandpit-mid"/></svg></g><g transform="translate(128 160)"><svg x="12" y="27" width="40" height="50" viewBox="0 0 64 80"><use href="#sandpit-near"/></svg></g><g transform="translate(192 160)"><svg x="12" y="27" width="40" height="50" viewBox="0 0 64 80"><use href="#sandpit-far"/><use href="#snow-sandpit"/></svg></g><g transform="translate(256 160)"><svg x="12" y="27" width="40" height="50" viewBox="0 0 64 80"><use href="#sandpit-mid"/><use href="#snow-sandpit"/></svg></g><g transform="translate(320 160)"><svg x="12" y="27" width="40" height="50" viewBox="0 0 64 80"><use href="#sandpit-near"/><use href="#snow-sandpit"/></svg></g>
  <g transform="translate(0 240)"><svg x="12" y="27" width="40" height="50" viewBox="0 0 64 80"><use href="#bench-tree-far"/></svg></g><g transform="translate(64 240)"><svg x="12" y="27" width="40" height="50" viewBox="0 0 64 80"><use href="#bench-tree-mid"/></svg></g><g transform="translate(128 240)"><svg x="12" y="27" width="40" height="50" viewBox="0 0 64 80"><use href="#bench-tree-near"/></svg></g><g transform="translate(192 240)"><svg x="12" y="27" width="40" height="50" viewBox="0 0 64 80"><use href="#bench-tree-far"/><use href="#snow-bench-tree"/></svg></g><g transform="translate(256 240)"><svg x="12" y="27" width="40" height="50" viewBox="0 0 64 80"><use href="#bench-tree-mid"/><use href="#snow-bench-tree"/></svg></g><g transform="translate(320 240)"><svg x="12" y="27" width="40" height="50" viewBox="0 0 64 80"><use href="#bench-tree-near"/><use href="#snow-bench-tree"/></svg></g>
  <g transform="translate(0 320)"><svg x="12" y="27" width="40" height="50" viewBox="0 0 64 80"><use href="#bench-far"/></svg></g><g transform="translate(64 320)"><svg x="12" y="27" width="40" height="50" viewBox="0 0 64 80"><use href="#bench-mid"/></svg></g><g transform="translate(128 320)"><svg x="12" y="27" width="40" height="50" viewBox="0 0 64 80"><use href="#bench-near"/></svg></g><g transform="translate(192 320)"><svg x="12" y="27" width="40" height="50" viewBox="0 0 64 80"><use href="#bench-far"/><use href="#snow-bench"/></svg></g><g transform="translate(256 320)"><svg x="12" y="27" width="40" height="50" viewBox="0 0 64 80"><use href="#bench-mid"/><use href="#snow-bench"/></svg></g><g transform="translate(320 320)"><svg x="12" y="27" width="40" height="50" viewBox="0 0 64 80"><use href="#bench-near"/><use href="#snow-bench"/></svg></g>
  <g transform="translate(0 400)"><svg x="12" y="27" width="40" height="50" viewBox="0 0 64 80"><use href="#laundry-lines-far"/></svg></g><g transform="translate(64 400)"><svg x="12" y="27" width="40" height="50" viewBox="0 0 64 80"><use href="#laundry-lines-mid"/></svg></g><g transform="translate(128 400)"><svg x="12" y="27" width="40" height="50" viewBox="0 0 64 80"><use href="#laundry-lines-near"/></svg></g><g transform="translate(192 400)"><svg x="12" y="27" width="40" height="50" viewBox="0 0 64 80"><use href="#laundry-lines-far"/><use href="#snow-laundry-lines"/></svg></g><g transform="translate(256 400)"><svg x="12" y="27" width="40" height="50" viewBox="0 0 64 80"><use href="#laundry-lines-mid"/><use href="#snow-laundry-lines"/></svg></g><g transform="translate(320 400)"><svg x="12" y="27" width="40" height="50" viewBox="0 0 64 80"><use href="#laundry-lines-near"/><use href="#snow-laundry-lines"/></svg></g>
  <g transform="translate(0 480)"><svg x="12" y="27" width="40" height="50" viewBox="0 0 64 80"><use href="#washing-post-far"/></svg></g><g transform="translate(64 480)"><svg x="12" y="27" width="40" height="50" viewBox="0 0 64 80"><use href="#washing-post-mid"/></svg></g><g transform="translate(128 480)"><svg x="12" y="27" width="40" height="50" viewBox="0 0 64 80"><use href="#washing-post-near"/></svg></g><g transform="translate(192 480)"><svg x="12" y="27" width="40" height="50" viewBox="0 0 64 80"><use href="#washing-post-far"/><use href="#snow-washing-post"/></svg></g><g transform="translate(256 480)"><svg x="12" y="27" width="40" height="50" viewBox="0 0 64 80"><use href="#washing-post-mid"/><use href="#snow-washing-post"/></svg></g><g transform="translate(320 480)"><svg x="12" y="27" width="40" height="50" viewBox="0 0 64 80"><use href="#washing-post-near"/><use href="#snow-washing-post"/></svg></g>
  <g transform="translate(0 560)"><svg x="12" y="27" width="40" height="50" viewBox="0 0 64 80"><use href="#service-shelter-ne-far"/></svg></g><g transform="translate(64 560)"><svg x="12" y="27" width="40" height="50" viewBox="0 0 64 80"><use href="#service-shelter-ne-mid"/></svg></g><g transform="translate(128 560)"><svg x="12" y="27" width="40" height="50" viewBox="0 0 64 80"><use href="#service-shelter-ne-near"/></svg></g><g transform="translate(192 560)"><svg x="12" y="27" width="40" height="50" viewBox="0 0 64 80"><use href="#service-shelter-ne-far"/><use href="#snow-shelter-ne"/></svg></g><g transform="translate(256 560)"><svg x="12" y="27" width="40" height="50" viewBox="0 0 64 80"><use href="#service-shelter-ne-mid"/><use href="#snow-shelter-ne"/></svg></g><g transform="translate(320 560)"><svg x="12" y="27" width="40" height="50" viewBox="0 0 64 80"><use href="#service-shelter-ne-near"/><use href="#snow-shelter-ne"/></svg></g>
  <g transform="translate(0 640)"><svg x="12" y="27" width="40" height="50" viewBox="0 0 64 80"><use href="#service-kiosk-ne-far"/></svg></g><g transform="translate(64 640)"><svg x="12" y="27" width="40" height="50" viewBox="0 0 64 80"><use href="#service-kiosk-ne-mid"/></svg></g><g transform="translate(128 640)"><svg x="12" y="27" width="40" height="50" viewBox="0 0 64 80"><use href="#service-kiosk-ne-near"/></svg></g><g transform="translate(192 640)"><svg x="12" y="27" width="40" height="50" viewBox="0 0 64 80"><use href="#service-kiosk-ne-far"/><use href="#snow-kiosk-ne"/></svg></g><g transform="translate(256 640)"><svg x="12" y="27" width="40" height="50" viewBox="0 0 64 80"><use href="#service-kiosk-ne-mid"/><use href="#snow-kiosk-ne"/></svg></g><g transform="translate(320 640)"><svg x="12" y="27" width="40" height="50" viewBox="0 0 64 80"><use href="#service-kiosk-ne-near"/><use href="#snow-kiosk-ne"/></svg></g>
  <g transform="translate(0 720)"><svg x="12" y="27" width="40" height="50" viewBox="0 0 64 80"><use href="#service-shelter-nw-far"/></svg></g><g transform="translate(64 720)"><svg x="12" y="27" width="40" height="50" viewBox="0 0 64 80"><use href="#service-shelter-nw-mid"/></svg></g><g transform="translate(128 720)"><svg x="12" y="27" width="40" height="50" viewBox="0 0 64 80"><use href="#service-shelter-nw-near"/></svg></g><g transform="translate(192 720)"><svg x="12" y="27" width="40" height="50" viewBox="0 0 64 80"><use href="#service-shelter-nw-far"/><use href="#snow-shelter-nw"/></svg></g><g transform="translate(256 720)"><svg x="12" y="27" width="40" height="50" viewBox="0 0 64 80"><use href="#service-shelter-nw-mid"/><use href="#snow-shelter-nw"/></svg></g><g transform="translate(320 720)"><svg x="12" y="27" width="40" height="50" viewBox="0 0 64 80"><use href="#service-shelter-nw-near"/><use href="#snow-shelter-nw"/></svg></g>
  <g transform="translate(0 800)"><svg x="12" y="27" width="40" height="50" viewBox="0 0 64 80"><use href="#service-kiosk-nw-far"/></svg></g><g transform="translate(64 800)"><svg x="12" y="27" width="40" height="50" viewBox="0 0 64 80"><use href="#service-kiosk-nw-mid"/></svg></g><g transform="translate(128 800)"><svg x="12" y="27" width="40" height="50" viewBox="0 0 64 80"><use href="#service-kiosk-nw-near"/></svg></g><g transform="translate(192 800)"><svg x="12" y="27" width="40" height="50" viewBox="0 0 64 80"><use href="#service-kiosk-nw-far"/><use href="#snow-kiosk-nw"/></svg></g><g transform="translate(256 800)"><svg x="12" y="27" width="40" height="50" viewBox="0 0 64 80"><use href="#service-kiosk-nw-mid"/><use href="#snow-kiosk-nw"/></svg></g><g transform="translate(320 800)"><svg x="12" y="27" width="40" height="50" viewBox="0 0 64 80"><use href="#service-kiosk-nw-near"/><use href="#snow-kiosk-nw"/></svg></g>
</svg>
