<svg xmlns="http://www.w3.org/2000/svg" viewBox="0 0 320 140" shape-rendering="crispEdges">
  <rect width="320" height="140" fill="#667f86"/>
  <rect y="78" width="320" height="62" fill="#384b50"/>
  <polygon points="0,118 116,74 320,111 320,140 0,140" fill="#586665"/>
  <polygon points="0,126 120,86 320,120 320,128 120,96 0,136" fill="#252f31"/>
  <polygon points="0,130 120,90 320,123 320,127 120,95 0,135" fill="#d8aa52"/>
  <polygon points="20,136 125,99 298,129 298,134 125,105 20,140" fill="#20292b"/>

  <g fill="#526166" stroke="#302824" stroke-width="2">
    <rect x="32" y="31" width="12" height="65"/>
    <rect x="37" y="26" width="6" height="6" fill="#3c2b27"/>
    <rect x="81" y="19" width="13" height="68"/>
    <rect x="86" y="14" width="7" height="6" fill="#3c2b27"/>
    <rect x="238" y="26" width="12" height="64"/>
    <rect x="243" y="21" width="6" height="6" fill="#3c2b27"/>
  </g>
  <g fill="#56676b">
    <rect x="30" y="22" width="8" height="8"/>
    <rect x="24" y="16" width="8" height="7"/>
    <rect x="18" y="11" width="7" height="6"/>
    <rect x="78" y="11" width="9" height="8"/>
    <rect x="70" y="5" width="9" height="7"/>
    <rect x="235" y="18" width="8" height="8"/>
    <rect x="228" y="11" width="8" height="8"/>
  </g>

  <g stroke="#302824" stroke-width="2">
    <polygon points="26,72 52,55 76,65 100,48 124,58 149,42 178,55 205,43 236,57 209,75 58,94" fill="#2f5267"/>
    <polygon points="26,72 58,94 58,116 26,105" fill="#7a3b31"/>
    <polygon points="58,94 209,75 209,104 58,116" fill="#9d4735"/>
    <polygon points="52,55 76,65 67,71 43,62" fill="#b78a4a"/>
    <polygon points="100,48 124,58 114,65 90,55" fill="#b78a4a"/>
    <polygon points="149,42 178,55 166,62 137,49" fill="#c5974d"/>
    <polygon points="205,43 236,57 224,64 193,50" fill="#ad7f42"/>
  </g>
  <g fill="#e0ad52" stroke="#302824" stroke-width="1">
    <polygon points="72,94 82,92 82,100 72,102"/>
    <polygon points="91,91 101,89 101,97 91,99"/>
    <polygon points="110,88 120,86 120,94 110,96"/>
    <polygon points="129,85 139,83 139,91 129,93"/>
    <polygon points="148,82 158,80 158,88 148,90"/>
    <polygon points="167,79 177,77 177,85 167,87"/>
    <polygon points="186,76 196,74 196,82 186,84"/>
  </g>

  <g stroke="#302824" stroke-width="2">
    <polygon points="112,111 133,104 164,110 143,117" fill="#b24432"/>
    <polygon points="112,111 143,117 143,128 112,123" fill="#79352c"/>
    <polygon points="143,117 164,110 164,121 143,128" fill="#8e3d30"/>
    <polygon points="168,120 188,113 219,119 199,126" fill="#b24432"/>
    <polygon points="168,120 199,126 199,136 168,131" fill="#79352c"/>
    <polygon points="199,126 219,119 219,129 199,136" fill="#8e3d30"/>
    <rect x="119" y="124" width="8" height="5" fill="#20292b"/>
    <rect x="146" y="125" width="8" height="5" fill="#20292b"/>
    <rect x="176" y="132" width="8" height="5" fill="#20292b"/>
    <rect x="202" y="132" width="8" height="5" fill="#20292b"/>
  </g>
</svg>
